<svg width="22" height="22" viewBox="0 0 22 22" fill="none" xmlns="http://www.w3.org/2000/svg">
<path fill-rule="evenodd" clip-rule="evenodd" d="M11.0934 3.45958L10.9999 3.49038L10.9075 3.46068C10.5165 3.33241 10.0994 3.30495 9.69491 3.38086C9.29042 3.45677 8.91166 3.63358 8.59372 3.89491C8.27579 4.15623 8.02899 4.4936 7.87621 4.87573C7.72343 5.25787 7.66961 5.67239 7.71974 6.08088L7.84514 7.10938C7.94063 7.87879 8.314 8.58679 8.89502 9.10016C9.47603 9.61353 10.2246 9.89687 10.9999 9.89687C11.7753 9.89687 12.5239 9.61353 13.1049 9.10016C13.6859 8.58679 14.0593 7.87879 14.1547 7.10938L14.2812 6.08088C14.331 5.67245 14.2769 5.25808 14.124 4.8761C13.9711 4.49412 13.7244 4.15687 13.4066 3.89555C13.0888 3.63423 12.7102 3.45728 12.3059 3.38107C11.9016 3.30487 11.4846 3.33187 11.0934 3.45958ZM9.98244 4.44958C10.1782 4.42428 10.3773 4.44408 10.5654 4.50458L10.9999 4.64758L11.4355 4.50458C11.6507 4.43392 11.8802 4.41878 12.1028 4.46055C12.3254 4.50232 12.5338 4.59965 12.7088 4.74351C12.8837 4.88737 13.0194 5.07309 13.1034 5.28343C13.1873 5.49377 13.2167 5.72191 13.1889 5.94668L13.0624 6.97518C12.9988 7.47727 12.7542 7.93891 12.3745 8.27353C11.9948 8.60815 11.5061 8.79277 10.9999 8.79277C10.4938 8.79277 10.0051 8.60815 9.62539 8.27353C9.24569 7.93891 9.00108 7.47727 8.93744 6.97518L8.81094 5.94668C8.78911 5.77132 8.80213 5.59338 8.84924 5.42307C8.89635 5.25276 8.97664 5.09343 9.08549 4.95423C9.19433 4.81503 9.3296 4.69869 9.48353 4.6119C9.63745 4.52511 9.807 4.47067 9.98244 4.44958Z" fill="#212121" fill-opacity="0.5"/>
<path fill-rule="evenodd" clip-rule="evenodd" d="M13.057 8.80005H8.6944C8.11502 8.80041 7.54595 8.9533 7.0444 9.24335C5.29027 10.2568 3.99227 11.3968 3.1504 12.6632C2.8809 13.0702 2.607 13.442 2.3507 13.7885C1.2342 15.301 0.460903 16.3482 1.8348 17.864C3.5233 19.7285 7.1016 20.9 10.6128 20.9C14.124 20.9 17.6231 20.2092 19.8935 17.864C21.5743 16.1282 20.8758 15.3538 19.789 14.1493C19.4073 13.7269 18.9783 13.2517 18.5878 12.6632C17.7137 11.3484 16.4098 10.2022 14.6762 9.22465C14.1819 8.9463 13.6243 8.80006 13.057 8.80005ZM7.5944 10.1948C7.92884 10.0017 8.30822 9.90007 8.6944 9.90005H13.057C13.4351 9.90034 13.8068 9.99809 14.1361 10.1838C15.7267 11.0792 16.9004 12.111 17.6715 13.2715C17.8541 13.5465 18.0521 13.8127 18.271 14.0811C18.2963 14.1119 18.3876 14.2164 18.513 14.3583C18.8881 14.7873 19.5701 15.5661 19.6889 15.7586C19.9023 16.1062 19.8539 16.324 19.1026 17.0995C17.303 18.9596 14.421 19.8 10.6128 19.8C7.3172 19.8 4.0722 18.6945 2.6499 17.1259C2.2319 16.6639 2.1494 16.3933 2.2275 16.0886C2.2891 15.8466 2.4541 15.5386 2.7698 15.0854C2.8094 15.0271 2.9403 14.8478 3.1031 14.6256C3.3836 14.2406 3.7587 13.7258 3.9171 13.4926L4.0678 13.2726C4.807 12.1583 5.9774 11.1298 7.5944 10.1948Z" fill="#212121" fill-opacity="0.5"/>
<path d="M7.18957 1.30464C7.16094 1.23729 7.14603 1.16489 7.14573 1.09171C7.14542 1.01852 7.15973 0.946004 7.18781 0.878416C7.21589 0.810828 7.25718 0.749524 7.30925 0.698096C7.36133 0.646668 7.42314 0.606151 7.49108 0.578918C7.55901 0.551686 7.6317 0.538287 7.70488 0.539505C7.77805 0.540723 7.85025 0.556535 7.91724 0.586013C7.98423 0.615492 8.04467 0.658044 8.095 0.711177C8.14534 0.764309 8.18456 0.826954 8.21037 0.89544L9.31037 3.64544C9.36112 3.78008 9.35709 3.92925 9.29914 4.06095C9.24118 4.19265 9.13392 4.2964 9.00037 4.34994C8.86681 4.40348 8.71759 4.40254 8.58471 4.34734C8.45183 4.29214 8.34588 4.18706 8.28957 4.05464L7.18957 1.30464ZM13.7896 0.89544C13.8154 0.826954 13.8546 0.764309 13.9049 0.711177C13.9553 0.658044 14.0157 0.615492 14.0827 0.586013C14.1497 0.556535 14.2219 0.540723 14.2951 0.539505C14.3683 0.538287 14.4409 0.551686 14.5089 0.578918C14.5768 0.606151 14.6386 0.646668 14.6907 0.698096C14.7428 0.749524 14.7841 0.810828 14.8121 0.878416C14.8402 0.946004 14.8545 1.01852 14.8542 1.09171C14.8539 1.16489 14.839 1.23729 14.8104 1.30464L13.7104 4.05464C13.6846 4.12313 13.6453 4.18577 13.595 4.2389C13.5447 4.29204 13.4842 4.33459 13.4172 4.36407C13.3503 4.39354 13.2781 4.40936 13.2049 4.41057C13.1317 4.41179 13.059 4.39839 12.9911 4.37116C12.9231 4.34393 12.8613 4.30341 12.8093 4.25198C12.7572 4.20056 12.7159 4.13925 12.6878 4.07166C12.6597 4.00407 12.6454 3.93156 12.6457 3.85837C12.646 3.78518 12.6609 3.71279 12.6896 3.64544L13.7896 0.89544ZM10.45 12.65C10.45 12.5042 10.5079 12.3643 10.6111 12.2611C10.7142 12.158 10.8541 12.1 11 12.1C11.1458 12.1 11.2857 12.158 11.3889 12.2611C11.492 12.3643 11.55 12.5042 11.55 12.65V17.05C11.55 17.1959 11.492 17.3358 11.3889 17.4389C11.2857 17.5421 11.1458 17.6 11 17.6C10.8541 17.6 10.7142 17.5421 10.6111 17.4389C10.5079 17.3358 10.45 17.1959 10.45 17.05V12.65ZM7.79237 12.3453C7.83134 12.2829 7.88244 12.229 7.94264 12.1866C8.00285 12.1443 8.07093 12.1145 8.14285 12.099C8.21478 12.0835 8.28909 12.0825 8.36139 12.0962C8.43369 12.11 8.5025 12.138 8.56374 12.1788C8.62499 12.2196 8.67744 12.2723 8.71797 12.3337C8.7585 12.3951 8.78629 12.464 8.7997 12.5364C8.81311 12.6087 8.81187 12.683 8.79604 12.7549C8.78022 12.8268 8.75014 12.8947 8.70757 12.9547L6.50757 16.2547C6.42482 16.3715 6.29984 16.4513 6.15916 16.4774C6.01848 16.5035 5.87317 16.4737 5.75408 16.3944C5.63499 16.3151 5.55149 16.1925 5.5213 16.0527C5.49111 15.9128 5.5166 15.7667 5.59237 15.6453L7.79237 12.3453ZM14.2076 12.3453C14.1686 12.2829 14.1175 12.229 14.0573 12.1866C13.9971 12.1443 13.929 12.1145 13.8571 12.099C13.7852 12.0835 13.7109 12.0825 13.6386 12.0962C13.5663 12.11 13.4975 12.138 13.4362 12.1788C13.375 12.2196 13.3225 12.2723 13.282 12.3337C13.2415 12.3951 13.2137 12.464 13.2002 12.5364C13.1868 12.6087 13.1881 12.683 13.2039 12.7549C13.2197 12.8268 13.2498 12.8947 13.2924 12.9547L15.4924 16.2547C15.5751 16.3715 15.7001 16.4513 15.8408 16.4774C15.9815 16.5035 16.1268 16.4737 16.2459 16.3944C16.365 16.3151 16.4485 16.1925 16.4787 16.0527C16.5088 15.9128 16.4833 15.7667 16.4076 15.6453L14.2076 12.3453Z" fill="#212121" fill-opacity="0.5"/>
</svg>
