<svg width="22" height="22" viewBox="0 0 22 22" fill="none" xmlns="http://www.w3.org/2000/svg">
<path d="M13.75 15.5834C13.0167 16.1535 12.0542 16.5 11 16.5C9.94583 16.5 8.98333 16.1535 8.25 15.5834" stroke="#212121" stroke-width="1.5" stroke-linecap="round" stroke-linejoin="round"/>
<path d="M2.15596 12.1129C1.83146 10.0064 1.67012 8.95404 2.06796 8.01996C2.46579 7.08587 3.34946 6.44787 5.11587 5.17096L6.43587 4.21671C8.63312 2.62812 9.73221 1.83337 11.0009 1.83337C12.2677 1.83337 13.3659 2.62812 15.564 4.21671L16.884 5.17096C18.6505 6.44787 19.5332 7.08679 19.932 8.01996C20.3298 8.95404 20.1685 10.0064 19.8449 12.112L19.569 13.9086C19.1106 16.8933 18.8805 18.3856 17.8099 19.2766C16.7392 20.1676 15.1745 20.1667 12.045 20.1667H9.95496C6.82454 20.1667 5.25979 20.1667 4.18912 19.2766C3.11846 18.3856 2.88929 16.8933 2.43096 13.9077L2.15596 12.1129Z" stroke="#212121" stroke-width="1.5" stroke-linecap="round" stroke-linejoin="round"/>
</svg>
