<svg width="18" height="18" viewBox="0 0 18 18" fill="none" xmlns="http://www.w3.org/2000/svg">
<path d="M1.66675 14.4999C1.66675 13.5275 2.05306 12.5948 2.74069 11.9072C3.42832 11.2196 4.36095 10.8333 5.33341 10.8333H12.6667C13.6392 10.8333 14.5718 11.2196 15.2595 11.9072C15.9471 12.5948 16.3334 13.5275 16.3334 14.4999C16.3334 14.9861 16.1403 15.4525 15.7964 15.7963C15.4526 16.1401 14.9863 16.3333 14.5001 16.3333H3.50008C3.01385 16.3333 2.54754 16.1401 2.20372 15.7963C1.8599 15.4525 1.66675 14.9861 1.66675 14.4999Z" stroke="#212121" stroke-opacity="0.5" stroke-width="1.5" stroke-linejoin="round"/>
<path d="M9 7.16663C10.5188 7.16663 11.75 5.93541 11.75 4.41663C11.75 2.89784 10.5188 1.66663 9 1.66663C7.48122 1.66663 6.25 2.89784 6.25 4.41663C6.25 5.93541 7.48122 7.16663 9 7.16663Z" stroke="#212121" stroke-opacity="0.5" stroke-width="1.5"/>
</svg>
