<svg width="162" height="33" viewBox="0 0 162 33" fill="none" xmlns="http://www.w3.org/2000/svg">
<g clip-path="url(#clip0_511_247)">
<path d="M74.4514 8.0956C71.9802 10.5745 69.5501 13.0972 67.0291 15.5263C66.5865 15.9531 65.8624 16.6605 64.9771 17.5726C64.4788 18.0666 63.9805 18.5606 63.4821 19.0546C63.2945 19.2417 63.104 19.4259 62.9164 19.6129C61.4009 20.8202 60.0084 22.1532 58.7538 23.6265C57.9418 24.8074 58.1236 26.4093 57.1093 27.5084C57.4611 27.7862 57.7718 28.1896 58.1734 28.3182C59.4134 28.7128 60.6768 29.0753 62.0106 28.9233C62.5969 29.0548 63.2388 29.1922 63.104 29.9902C62.975 30.7532 62.3272 30.7181 61.7262 30.7123C59.9498 30.6947 58.2613 30.2767 56.6813 29.4933C55.9602 29.1367 55.4443 29.0636 54.7671 29.6716C53.8643 30.4813 52.7533 31.0046 51.5162 31.1946C49.3851 31.522 47.8285 29.7271 48.4441 27.6838C48.5936 27.1869 48.8106 26.7192 49.3177 26.7455C49.8981 26.7777 50.2235 27.3857 50.2968 27.8505C50.4521 28.8443 50.5137 29.239 50.8655 29.4962C51.311 29.8236 52.126 29.4202 52.7005 29.1337C53.2575 28.856 54.5854 28.1749 55.5322 26.5876C56.2064 25.4593 56.3911 24.369 56.4439 23.6908C56.8044 22.1766 58.1617 21.4662 59.1173 20.4402C59.6596 19.8585 60.2899 19.3557 60.8791 18.8208C63.6463 16.4325 66.0676 13.6964 68.7029 11.1737C70.2155 9.72674 71.6988 8.24761 73.1909 6.78017C73.7009 6.27738 74.2931 5.75121 74.938 6.40308C75.6357 7.10757 74.9175 7.62497 74.4514 8.09268V8.0956Z" fill="#E3C5CF"/>
<path d="M12.4291 14.2577C12.4291 12.7493 12.4379 11.241 12.4261 9.73261C12.4203 9.05735 12.4789 8.38795 13.3349 8.35287C14.2553 8.31487 14.2436 9.01935 14.2436 9.68292C14.2407 12.5535 14.226 15.424 14.2553 18.2946C14.2758 20.2005 15.1259 21.6913 16.8349 22.5449C18.4472 23.3517 20.0682 23.1325 21.531 22.0918C22.815 21.1769 23.3543 19.8585 23.3602 18.3121C23.3719 15.6374 23.3602 12.9598 23.3719 10.2851C23.3719 9.85246 23.4012 9.41106 23.498 8.99305C23.5888 8.60719 23.8058 8.25348 24.2982 8.30317C24.7233 8.3441 25.0223 8.56918 25.1307 9.00181C25.1425 9.04859 25.1747 9.09536 25.1747 9.1392C25.1307 12.9686 25.7317 16.8476 24.823 20.6127C24.1341 23.4657 21.0239 25.1904 17.9577 24.8396C15.123 24.5151 12.6372 21.9486 12.4848 19.0722C12.3997 17.4703 12.4701 15.8625 12.4701 14.2577C12.4554 14.2577 12.4408 14.2577 12.4261 14.2577H12.4291Z" fill="#E3C5CF"/>
<path d="M9.29545 20.1976C9.28666 22.7875 7.41058 24.7753 4.89252 24.863C2.40377 24.9507 0.211096 23.0828 0.0879775 20.7735C0.0557323 20.183 -0.0234151 19.5282 0.768059 19.382C1.65627 19.2154 1.79697 19.8731 1.9113 20.5338C2.16047 21.9486 3.03402 22.8255 4.43522 22.9658C5.69865 23.0915 6.67187 22.4777 7.20831 21.2792C7.7682 20.031 7.42816 18.8179 6.18233 18.1806C4.9746 17.5638 3.66133 17.1546 2.44188 16.5553C0.299037 15.4971 -0.416221 13.8368 0.228684 11.6239C0.83548 9.5309 2.84641 8.12485 4.9658 8.31486C7.19658 8.51364 9.06388 10.1799 9.26028 12.1998C9.31598 12.7932 9.54755 13.5678 8.65348 13.7578C7.7301 13.9537 7.56594 13.3223 7.41351 12.5622C7.1702 11.352 6.47546 10.4312 5.15341 10.2471C3.88119 10.0717 2.88159 10.5131 2.2572 11.7028C1.57419 13.0007 1.94354 14.2606 3.34768 14.9651C4.21243 15.3977 5.14755 15.693 6.05334 16.0467C8.26947 16.9178 9.30425 18.242 9.29545 20.1976Z" fill="#E3C5CF"/>
<path d="M53.2282 27.4558C52.1318 26.9911 50.5694 26.1463 49.306 24.5853C47.94 22.8957 46.0053 21.2909 46.4508 13.2287C46.6208 10.1448 46.187 7.19235 43.7393 4.92981C42.9126 4.16393 41.9951 3.56176 40.8929 3.22267C40.3125 3.04436 39.5797 2.74911 39.9461 1.90432C40.2539 1.18229 40.8783 1.4103 41.4616 1.58861C43.4843 2.20248 45.0408 3.46822 46.3805 5.04381C46.8466 5.92661 47.4915 7.34143 47.8784 9.17134C48.2947 11.1386 48.0338 11.7993 48.239 15.044C48.4383 18.1747 48.5526 19.7708 49.3001 21.3376C50.2089 23.2435 51.6159 24.4625 52.6097 25.1641L54.4271 26.3363C54.0285 26.7104 53.6298 27.0817 53.2282 27.4558Z" fill="#E3C5CF"/>
<path d="M30.6564 16.6313C30.6564 18.8179 30.6564 21.0044 30.6564 23.1909C30.6564 23.9246 30.7531 24.7899 29.7125 24.8279C28.707 24.8659 28.7686 23.9802 28.7656 23.3371C28.7363 18.7711 28.748 14.2021 28.7451 9.63614C28.7451 8.91996 28.9972 8.32071 29.7946 8.35286C30.5333 8.38209 30.6622 8.99888 30.6593 9.63614C30.6505 11.9688 30.6564 14.3015 30.6593 16.6342L30.6564 16.6313Z" fill="#E3C5CF"/>
<path d="M55.5556 22.8051C54.7758 23.188 53.9961 23.568 53.2192 23.948C53.7058 22.9746 54.4387 22.501 55.5556 22.8051Z" fill="#333333"/>
<path d="M55.5556 22.8051C54.7758 23.188 53.9961 23.568 53.2193 23.948C52.3662 24.0942 52.2461 23.2026 52.2226 22.8869C52.1757 22.1678 53.0082 21.9691 53.5124 21.5861C53.7762 21.5013 54.1104 21.4195 54.5062 21.3844C55.0895 21.3347 55.579 21.4049 55.922 21.4867C55.9572 21.592 56.0451 21.9047 55.922 22.2701C55.8253 22.5566 55.6435 22.732 55.5585 22.8051H55.5556Z" fill="#E3C5CF"/>
<path d="M145.526 16.6664C145.52 18.5197 145.511 20.3759 145.502 22.2292C144.497 23.2465 143.312 23.986 141.993 24.5268C140.841 24.7899 139.672 24.8776 138.496 24.8834C135.688 24.4859 133.557 22.9746 131.962 20.7384C131.188 19.6539 130.933 18.315 130.857 16.9762C131.153 15.5877 130.998 14.1729 131.81 12.8136C132.581 11.5274 133.501 10.5131 134.635 9.78228C134.893 9.61566 135.79 9.06902 137.086 8.72701C137.47 8.6247 138.182 8.46685 139.097 8.43762C139.894 8.41131 140.58 8.49608 141.105 8.59547C142.058 8.96964 143.013 9.34088 143.966 9.71505C144.605 10.4575 146.059 10.8229 145.168 12.2787C143.649 12.647 142.94 11.0597 141.668 10.8405C140.454 10.1974 139.203 10.0629 137.901 10.5423C134.759 11.2731 133.375 13.0241 132.988 15.5994C132.463 19.0634 133.891 20.8874 136.585 22.4601C138.725 23.7112 141.263 23.1997 143.479 21.3142C143.884 20.0836 143.863 18.8558 143.479 17.6252C142.283 17.5024 141.085 17.3446 139.9 17.7012C139.003 17.9701 138.484 17.2452 138.364 16.7307C138.232 16.1607 138.865 15.6579 139.575 15.652C141.228 15.6374 142.884 15.6403 144.538 15.6725C145.147 15.6813 145.531 16.0087 145.529 16.6664H145.526Z" fill="#E3C5CF"/>
<path d="M90.0081 8.42886C88.7916 8.49609 87.5692 8.49317 86.3556 8.4347C85.2006 8.38209 84.7902 8.89949 84.8049 9.99568C84.84 12.229 84.8166 14.4623 84.8166 16.6985H84.8049C84.8049 18.9318 84.843 21.1652 84.7873 23.3985C84.7609 24.4508 85.1039 24.9273 86.2061 24.8747C87.4197 24.8191 88.6479 24.7724 89.8556 24.8776C93.9303 25.2401 97.0962 22.0889 97.8583 18.6541C98.9752 13.6146 95.7682 8.12485 90.0081 8.42886ZM93.2267 22.2818C91.2979 23.4774 89.158 22.9892 87.0884 23.0126C86.4201 23.0214 86.6429 22.3666 86.6399 21.9836C86.6135 20.1859 86.6282 18.3881 86.6253 16.5933C86.6253 14.8423 86.681 13.0913 86.6018 11.3462C86.5608 10.4137 86.8891 10.1594 87.7597 10.2412C88.4838 10.3114 89.2195 10.2558 89.9524 10.2588C93.086 10.2705 95.1409 11.7496 95.9441 14.5675C96.7649 17.441 95.5777 20.8231 93.2267 22.2818Z" fill="#E3C5CF"/>
<path d="M129.236 23.3955C128.887 22.5537 128.465 21.744 128.119 20.9021C126.8 17.6603 125.185 14.5442 124.1 11.2059C123.672 10.8522 123.611 10.3143 123.42 9.84076C123.112 9.07488 122.758 8.34701 121.793 8.23593C121.439 8.53702 121.142 8.80303 120.943 9.31166C119.486 12.9803 117.924 16.605 116.402 20.2473C115.954 21.3201 115.514 22.3987 115.095 23.4832C114.878 24.0445 114.928 24.559 115.602 24.7782C116.256 24.9916 116.605 24.6204 116.827 24.0679C116.883 23.9334 116.907 23.7843 116.959 23.6499C117.587 22.0743 117.9 21.285 118.487 20.8845C118.759 20.6975 119.058 20.5133 121.691 20.4841C125.302 20.4402 125.724 20.7296 125.97 20.9839C126.378 21.4078 126.993 22.3754 127.143 23.2494C127.199 23.5739 127.38 23.8837 127.547 24.179C127.829 24.6817 128.228 25.0618 128.846 24.7694C129.459 24.483 129.459 23.9305 129.236 23.3955ZM124.115 18.5723C122.805 18.5401 121.491 18.5197 120.184 18.5665C119.463 18.5957 119.178 18.5255 119.536 17.7217C120.404 15.7894 121.204 13.828 122.133 11.6385C123.06 13.7578 123.854 15.6754 124.739 17.5492C125.117 18.3472 124.98 18.5928 124.115 18.5723Z" fill="#E3C5CF"/>
<path d="M114.136 23.6645C113.96 23.2143 113.741 22.6238 113.5 22.045C112.732 20.2122 111.97 18.3794 111.179 16.5582C110.112 14.1086 109.018 11.6707 107.936 9.22981C107.714 8.7241 107.473 8.28855 106.782 8.30901C106.025 8.3324 106.025 8.89657 105.849 9.38767C105.624 10.0249 105.339 10.6417 105.075 11.2673C103.369 15.2837 101.672 19.3031 99.9485 23.3108C99.667 23.9626 99.7052 24.4567 100.376 24.7578C101.057 25.0647 101.367 24.5531 101.602 24.065C102.021 23.1909 102.481 22.3198 102.76 21.399C102.994 20.6215 103.416 20.4519 104.143 20.4665C106.049 20.5045 107.954 20.4987 109.857 20.4753C110.51 20.4665 110.903 20.6127 111.135 21.3142C111.472 22.3227 111.967 23.2815 112.416 24.252C112.618 24.6964 112.993 24.9273 113.483 24.8074C113.978 24.6847 114.186 24.3193 114.136 23.6645ZM109.009 18.5723C107.596 18.5577 106.184 18.546 104.774 18.5811C104.02 18.5986 104.108 18.2508 104.316 17.7714C105.163 15.8187 106.002 13.866 106.993 11.5713C107.925 13.8017 108.722 15.7719 109.575 17.7158C109.877 18.3969 109.681 18.5811 109.009 18.5723Z" fill="#E3C5CF"/>
<path d="M161.587 22.2555C161.484 21.9632 161.37 21.665 161.244 21.3552C161.083 20.9576 160.915 20.5864 160.748 20.2356C159.643 18.4144 159.013 16.3799 158.131 14.4565C157.333 12.7201 156.565 10.972 155.797 9.22396C155.592 8.75333 155.34 8.36162 154.777 8.32655C154.607 8.31485 154.481 8.34409 154.384 8.40255C154.024 8.61302 153.886 9.14211 153.863 9.25319C153.549 10.6768 152.587 11.887 152.154 13.2784C151.192 16.3624 148.639 21.0833 147.821 23.3955C147.748 23.6031 147.586 24.0971 147.821 24.4596C148.026 24.7753 148.519 24.9653 148.909 24.8484C149.524 24.6671 149.808 23.7493 150.242 22.3637C150.5 21.5422 150.594 20.9868 151.101 20.6741C151.391 20.4958 151.682 20.4636 151.857 20.4694C153.892 20.5162 155.929 20.4841 157.964 20.4811C158.26 20.4811 158.582 20.4724 158.776 20.6624C158.878 20.7647 158.91 20.8845 158.925 20.9342C159.341 22.4309 159.769 24.6057 160.573 24.8191C160.713 24.8571 160.886 24.8367 161.103 24.8133C161.47 24.7724 161.754 24.6613 161.941 24.5736L161.947 24.5648C162.164 23.7434 161.678 23.0301 161.59 22.2555H161.587ZM157.163 18.5635C155.66 18.5489 154.156 18.5401 152.652 18.5635C151.948 18.5781 151.966 18.3881 152.23 17.8064C153.103 15.8771 153.901 13.9098 154.868 11.6268C155.865 13.9361 156.738 15.956 157.618 17.976C157.826 18.4554 157.612 18.5694 157.163 18.5635Z" fill="#E3C5CF"/>
</g>
<defs>
<clipPath id="clip0_511_247">
<rect width="162" height="32.529" fill="white" transform="translate(0 0.0797729)"/>
</clipPath>
</defs>
</svg>
