<svg width="162" height="54" viewBox="0 0 162 54" fill="none" xmlns="http://www.w3.org/2000/svg">
<g clip-path="url(#clip0_181_153)">
<path d="M74.4513 6.68822C71.9801 9.16708 69.55 11.6898 67.029 14.119C66.5864 14.5457 65.8623 15.2531 64.977 16.1652C64.4787 16.6592 63.9804 17.1532 63.482 17.6472C63.2944 17.8343 63.1039 18.0185 62.9163 18.2056C61.4007 19.4128 60.0083 20.7458 58.7537 22.2191C57.9417 23.4001 58.1234 25.002 57.1092 26.1011C57.461 26.3788 57.7717 26.7822 58.1733 26.9108C59.4133 27.3054 60.6767 27.6679 62.0105 27.5159C62.5967 27.6474 63.2387 27.7848 63.1039 28.5829C62.9749 29.3458 62.3271 29.3107 61.7261 29.3049C59.9497 29.2873 58.2612 28.8693 56.6812 28.0859C55.9601 27.7293 55.4442 27.6562 54.767 28.2642C53.8641 29.0739 52.7532 29.5972 51.5161 29.7872C49.385 30.1146 47.8284 28.3198 48.444 26.2765C48.5935 25.7795 48.8104 25.3118 49.3176 25.3381C49.898 25.3703 50.2234 25.9783 50.2967 26.4431C50.452 27.437 50.5136 27.8316 50.8653 28.0888C51.3109 28.4162 52.1258 28.0128 52.7004 27.7264C53.2573 27.4487 54.5853 26.7676 55.5321 25.1803C56.2063 24.0519 56.391 22.9616 56.4438 22.2834C56.8043 20.7692 58.1616 20.0589 59.1172 19.0328C59.6595 18.4511 60.2897 17.9483 60.8789 17.4134C63.6462 15.0251 66.0675 12.289 68.7028 9.76633C70.2154 8.31936 71.6987 6.84023 73.1908 5.37279C73.7008 4.87001 74.293 4.34383 74.9379 4.9957C75.6355 5.70019 74.9173 6.21759 74.4513 6.6853V6.68822Z" fill="#E3C5CF"/>
<path d="M12.4291 12.8503C12.4291 11.342 12.4379 9.83359 12.4261 8.32523C12.4203 7.64998 12.4789 6.98057 13.3349 6.94549C14.2553 6.90749 14.2436 7.61197 14.2436 8.27554C14.2407 11.1461 14.226 14.0167 14.2553 16.8872C14.2758 18.7931 15.1259 20.284 16.8349 21.1375C18.4472 21.9443 20.0682 21.7251 21.531 20.6844C22.815 19.7695 23.3543 18.4511 23.3602 16.9048C23.3719 14.2301 23.3602 11.5524 23.3719 8.87771C23.3719 8.44508 23.4012 8.00368 23.498 7.58567C23.5888 7.19981 23.8058 6.8461 24.2982 6.8958C24.7233 6.93672 25.0223 7.1618 25.1307 7.59444C25.1425 7.64121 25.1747 7.68798 25.1747 7.73183C25.1307 11.5612 25.7317 15.4403 24.823 19.2053C24.1341 22.0583 21.0239 23.783 17.9577 23.4322C15.123 23.1078 12.6372 20.5412 12.4848 17.6648C12.3997 16.0629 12.4701 14.4551 12.4701 12.8503C12.4554 12.8503 12.4408 12.8503 12.4261 12.8503H12.4291Z" fill="#E3C5CF"/>
<path d="M9.29545 18.7902C9.28666 21.3802 7.41058 23.3679 4.89252 23.4556C2.40377 23.5433 0.211096 21.6754 0.0879775 19.3661C0.0557323 18.7756 -0.0234151 18.1208 0.768059 17.9746C1.65627 17.808 1.79697 18.4657 1.9113 19.1264C2.16047 20.5412 3.03402 21.4182 4.43522 21.5585C5.69865 21.6842 6.67187 21.0703 7.20831 19.8718C7.7682 18.6236 7.42816 17.4105 6.18233 16.7732C4.9746 16.1564 3.66133 15.7472 2.44188 15.1479C0.299037 14.0897 -0.416221 12.4294 0.228684 10.2165C0.83548 8.12353 2.84641 6.71747 4.9658 6.90748C7.19658 7.10626 9.06388 8.77247 9.26028 10.7924C9.31598 11.3858 9.54755 12.1604 8.65348 12.3504C7.7301 12.5463 7.56594 11.9149 7.41351 11.1549C7.1702 9.94467 6.47546 9.02386 5.15341 8.8397C3.88119 8.66431 2.88159 9.10571 2.2572 10.2954C1.57419 11.5933 1.94354 12.8532 3.34768 13.5577C4.21243 13.9904 5.14755 14.2856 6.05334 14.6393C8.26947 15.5104 9.30425 16.8346 9.29545 18.7902Z" fill="#E3C5CF"/>
<path d="M53.2281 26.0485C52.1317 25.5837 50.5693 24.7389 49.3059 23.1779C47.9398 21.4883 46.0051 19.8835 46.4507 11.8213C46.6207 8.73738 46.1869 5.78497 43.7392 3.52243C42.9125 2.75656 41.995 2.15438 40.8928 1.81529C40.3124 1.63698 39.5795 1.34174 39.946 0.496936C40.2538 -0.22509 40.8781 0.0029183 41.4615 0.181232C43.4841 0.7951 45.0407 2.06084 46.3803 3.63643C46.8464 4.51923 47.4913 5.93405 47.8783 7.76396C48.2945 9.73127 48.0336 10.3919 48.2388 13.6366C48.4382 16.7674 48.5525 18.3634 49.3 19.9302C50.2087 21.8362 51.6158 23.0551 52.6095 23.7567L54.427 24.9289C54.0283 25.3031 53.6297 25.6743 53.2281 26.0485Z" fill="#E3C5CF"/>
<path d="M30.6564 15.2239C30.6564 17.4105 30.6564 19.597 30.6564 21.7835C30.6564 22.5173 30.7531 23.3825 29.7125 23.4205C28.707 23.4585 28.7686 22.5728 28.7656 21.9297C28.7363 17.3637 28.748 12.7948 28.7451 8.22876C28.7451 7.51258 28.9972 6.91333 29.7946 6.94548C30.5333 6.97471 30.6622 7.5915 30.6593 8.22876C30.6505 10.5615 30.6564 12.8942 30.6593 15.2269L30.6564 15.2239Z" fill="#E3C5CF"/>
<path d="M48.5437 37.2764C47.9281 35.4027 46.7145 34.6192 44.3782 34.5871C42.8695 34.5676 42.1142 35.2896 42.1122 36.7532C42.1093 37.3846 42.1093 38.016 42.1093 38.6474C42.1093 39.7143 42.1034 40.7842 42.1093 41.8512C42.1122 42.2429 42.1181 42.7837 42.5578 42.8129C44.0381 42.9094 45.6064 43.2309 46.9256 42.2751C48.6961 40.9947 49.2003 39.2876 48.5437 37.2764ZM47.1747 40.831C46.4976 41.743 44.7563 42.2254 43.5809 41.898C43.1089 41.7664 43.1323 41.4566 43.1265 41.1262C43.1148 40.3487 43.1236 39.5682 43.1236 38.7906H43.103C43.103 38.4983 43.0444 38.1943 43.1118 37.9166C43.3024 37.1449 42.5607 36.0691 43.6629 35.616C44.7974 35.1483 46.6148 35.847 47.3037 36.8409C48.0248 37.8844 47.9662 39.764 47.1747 40.831Z" fill="#E3C5CF"/>
<path d="M60.8057 42.1172C59.7621 39.729 58.7332 37.3319 57.6544 34.9612C57.4258 34.4614 56.9861 34.3532 56.7105 34.9876C55.7168 37.2939 54.7406 39.6091 53.7586 41.9213C53.6384 42.2107 53.6414 42.5703 53.9199 42.7018C54.2892 42.8772 54.471 42.6171 54.6556 42.2546C54.9429 41.6963 54.8872 40.7813 55.7256 40.6994C56.7369 40.5971 57.7893 40.5591 58.783 40.7287C59.51 40.8544 59.5569 41.7635 59.8676 42.3452C60.0259 42.6434 60.1872 42.8217 60.5331 42.7077C60.7412 42.6404 60.8233 42.4738 60.8233 42.2604C60.8203 42.2137 60.8233 42.161 60.8057 42.1172ZM58.3814 39.5828C57.9095 40.0651 57.0007 39.729 56.2855 39.7436C55.708 39.7582 55.8751 39.3782 56.0158 39.0479C56.3558 38.2527 56.6871 37.4576 57.1561 36.3381C57.5196 37.0455 57.7629 37.4547 57.9446 37.8903C58.1792 38.4486 58.7742 39.1823 58.3814 39.5828Z" fill="#E3C5CF"/>
<path d="M37.0614 42.085C36.0296 39.7436 35.0183 37.3904 33.9454 35.0635C33.6435 34.4146 33.2184 34.5023 32.937 35.1512C32.0165 37.2793 31.0785 39.4045 30.1961 41.5472C30.0525 41.895 29.7037 42.5001 30.2489 42.696C30.9085 42.9327 30.9261 42.199 31.1254 41.7956C31.3628 41.3075 31.3511 40.5737 32.1836 40.6527C33.6786 40.793 35.6192 39.8897 36.1586 42.3247C36.2201 42.6112 36.4634 42.8334 36.8211 42.6989C37.0233 42.6229 37.0937 42.4417 37.0761 42.2283C37.0732 42.1815 37.079 42.1289 37.0614 42.085ZM33.4646 39.7786C32.3478 39.8313 31.7439 39.6909 32.5471 38.4574C32.9341 37.8669 32.9692 37.0922 33.5907 36.4316C33.9161 37.1361 34.177 37.6886 34.4232 38.2469C35.0417 39.6471 34.9714 39.7085 33.4646 39.7786Z" fill="#E3C5CF"/>
<path d="M25.3272 41.7518C24.3892 39.5331 23.413 37.329 22.4691 35.1074C22.1613 34.3854 21.7714 34.4234 21.4959 35.0431C20.4728 37.3436 19.5172 39.6734 18.5176 41.9857C18.3564 42.3598 18.2948 42.6346 18.8342 42.7603C19.3882 42.7515 19.3765 42.2107 19.57 41.86C19.7928 41.4566 19.696 40.755 20.2999 40.7111C21.4109 40.6322 22.5424 40.6088 23.6505 40.7258C24.3804 40.8018 24.1283 41.6992 24.48 42.1435C24.6794 42.3978 24.7527 42.8685 25.1865 42.7281C25.7669 42.5352 25.4621 42.0675 25.3272 41.7518ZM21.7861 39.7845C20.6282 39.7991 20.3937 39.4776 20.9829 38.4661C21.3405 37.8552 21.5516 37.1595 21.9532 36.1978C22.3284 37.0776 22.5483 37.6623 22.8179 38.2235C23.5801 39.8137 23.5889 39.7611 21.7861 39.7845Z" fill="#E3C5CF"/>
<path d="M75.7909 39.1502C74.636 39.0596 74.3282 39.4542 74.3223 40.5971C74.3165 41.7226 74.6799 41.9681 75.7294 41.9477C76.4388 41.936 77.7286 41.4215 77.7579 42.4914C77.7784 43.2105 76.4622 42.7691 75.7528 42.8831C75.2809 42.9591 74.7972 42.9649 74.3194 43C74.038 42.9065 73.7566 42.81 73.4781 42.7165C73.4634 40.4393 73.4781 38.1651 73.4253 35.8908C73.4019 34.8765 73.7888 34.4877 74.8031 34.5871C75.5242 34.6572 76.26 34.5929 76.987 34.6046C77.3768 34.6105 77.8458 34.6134 77.837 35.1454C77.8312 35.6248 77.3651 35.5167 77.0544 35.5634C76.9137 35.5868 76.7642 35.5693 76.6176 35.5722C74.9877 35.6092 74.2735 36.4794 74.4748 38.1826C75.4744 38.2674 76.5003 38.0043 77.4736 38.4106C77.3358 39.5682 76.4007 39.1969 75.7909 39.1502Z" fill="#E3C5CF"/>
<path d="M11.4324 40.8339C12.177 38.9953 12.8834 37.2706 13.5694 35.5401C13.7306 35.1367 13.8508 34.5111 14.3374 34.6573C15.038 34.8706 14.5895 35.4611 14.4341 35.8674C13.6133 37.9868 12.7603 40.0914 11.9366 42.2108C11.8193 42.5118 11.6728 42.7282 11.3532 42.7866C10.9487 42.8597 10.8784 42.4943 10.7816 42.2634C9.85237 40.033 8.94364 37.7909 8.04078 35.5488C7.93232 35.2799 7.84144 34.9203 8.14924 34.7596C8.5655 34.5433 8.75897 34.897 8.89381 35.2185C9.50647 36.6889 10.1162 38.1621 10.7113 39.6413C10.8696 40.0388 10.9868 40.4481 11.4324 40.8339Z" fill="#E3C5CF"/>
<path d="M55.5556 21.3977C54.7758 21.7806 53.9961 22.1606 53.2192 22.5406C53.7058 21.5672 54.4387 21.0937 55.5556 21.3977Z" fill="#333333"/>
<path d="M55.5556 21.3977C54.7758 21.7806 53.9961 22.1607 53.2193 22.5407C52.3662 22.6868 52.2461 21.7953 52.2226 21.4796C52.1757 20.7604 53.0082 20.5617 53.5124 20.1787C53.7762 20.094 54.1104 20.0121 54.5062 19.977C55.0895 19.9273 55.579 19.9975 55.922 20.0793C55.9572 20.1846 56.0451 20.4974 55.922 20.8628C55.8253 21.1492 55.6435 21.3246 55.5585 21.3977H55.5556Z" fill="#E3C5CF"/>
<path d="M145.526 15.259C145.52 17.1123 145.511 18.9685 145.502 20.8218C144.497 21.8391 143.312 22.5786 141.993 23.1194C140.841 23.3825 139.672 23.4702 138.496 23.4761C135.688 23.0785 133.557 21.5672 131.962 19.331C131.188 18.2465 130.933 16.9077 130.857 15.5689C131.153 14.1803 130.998 12.7655 131.81 11.4062C132.581 10.12 133.501 9.1057 134.635 8.3749C134.893 8.20828 135.79 7.66165 137.086 7.31963C137.47 7.21732 138.182 7.05947 139.097 7.03024C139.894 7.00393 140.58 7.0887 141.105 7.18809C142.058 7.56226 143.013 7.9335 143.966 8.30767C144.605 9.05016 146.059 9.41555 145.168 10.8713C143.649 11.2396 142.94 9.65233 141.668 9.43309C140.454 8.78999 139.203 8.65553 137.901 9.13493C134.759 9.86572 133.375 11.6167 132.988 14.192C132.463 17.656 133.891 19.4801 136.585 21.0527C138.725 22.3039 141.263 21.7923 143.479 19.9069C143.884 18.6762 143.863 17.4485 143.479 16.2178C142.283 16.095 141.085 15.9372 139.9 16.2938C139.003 16.5627 138.484 15.8378 138.364 15.3233C138.232 14.7533 138.865 14.2505 139.575 14.2446C141.228 14.23 142.884 14.233 144.538 14.2651C145.147 14.2739 145.531 14.6013 145.529 15.259H145.526Z" fill="#E3C5CF"/>
<path d="M90.0081 7.02148C88.7916 7.08871 87.5692 7.08579 86.3556 7.02733C85.2006 6.97471 84.7902 7.49211 84.8049 8.5883C84.84 10.8216 84.8166 13.0549 84.8166 15.2912H84.8049C84.8049 17.5245 84.843 19.7578 84.7873 21.9911C84.7609 23.0434 85.1039 23.5199 86.2061 23.4673C87.4197 23.4118 88.6479 23.365 89.8556 23.4702C93.9303 23.8327 97.0962 20.6815 97.8583 17.2468C98.9752 12.2072 95.7682 6.71747 90.0081 7.02148ZM93.2267 20.8744C91.2979 22.07 89.158 21.5818 87.0884 21.6052C86.4201 21.614 86.6429 20.9592 86.6399 20.5763C86.6135 18.7785 86.6282 16.9808 86.6253 15.1859C86.6253 13.4349 86.681 11.684 86.6018 9.93881C86.5608 9.00632 86.8891 8.752 87.7597 8.83385C88.4838 8.90401 89.2195 8.84847 89.9524 8.85139C93.086 8.86308 95.1409 10.3422 95.9441 13.1602C96.7649 16.0336 95.5777 19.4158 93.2267 20.8744Z" fill="#E3C5CF"/>
<path d="M129.236 21.9882C128.887 21.1463 128.465 20.3366 128.119 19.4947C126.8 16.2529 125.185 13.1368 124.1 9.7985C123.672 9.4448 123.611 8.90693 123.42 8.43338C123.112 7.66751 122.758 6.93963 121.793 6.82855C121.439 7.12964 121.142 7.39565 120.943 7.90428C119.486 11.5729 117.924 15.1976 116.402 18.8399C115.954 19.9127 115.514 20.9914 115.095 22.0759C114.878 22.6371 114.928 23.1516 115.602 23.3708C116.256 23.5842 116.605 23.213 116.827 22.6605C116.883 22.526 116.907 22.377 116.959 22.2425C117.587 20.6669 117.9 19.8776 118.487 19.4772C118.759 19.2901 119.058 19.1059 121.691 19.0767C125.302 19.0328 125.724 19.3222 125.97 19.5765C126.378 20.0004 126.993 20.968 127.143 21.842C127.199 22.1665 127.38 22.4763 127.547 22.7716C127.829 23.2744 128.228 23.6544 128.846 23.3621C129.459 23.0756 129.459 22.5231 129.236 21.9882ZM124.115 17.1649C122.805 17.1328 121.491 17.1123 120.184 17.1591C119.463 17.1883 119.178 17.1182 119.536 16.3143C120.404 14.3821 121.204 12.4206 122.133 10.2311C123.06 12.3504 123.854 14.268 124.739 16.1418C125.117 16.9398 124.98 17.1854 124.115 17.1649Z" fill="#E3C5CF"/>
<path d="M114.136 22.2571C113.96 21.8069 113.741 21.2165 113.5 20.6377C112.732 18.8048 111.97 16.972 111.179 15.1509C110.112 12.7012 109.018 10.2633 107.936 7.82244C107.714 7.31672 107.473 6.88117 106.782 6.90163C106.025 6.92502 106.025 7.48919 105.849 7.98029C105.624 8.61754 105.339 9.23433 105.075 9.85989C103.369 13.8763 101.672 17.8957 99.9485 21.9034C99.667 22.5553 99.7052 23.0493 100.376 23.3504C101.057 23.6573 101.367 23.1458 101.602 22.6576C102.021 21.7836 102.481 20.9124 102.76 19.9916C102.994 19.2141 103.416 19.0445 104.143 19.0591C106.049 19.0971 107.954 19.0913 109.857 19.0679C110.51 19.0591 110.903 19.2053 111.135 19.9069C111.472 20.9154 111.967 21.8742 112.416 22.8447C112.618 23.289 112.993 23.5199 113.483 23.4001C113.978 23.2773 114.186 22.9119 114.136 22.2571ZM109.009 17.1649C107.596 17.1503 106.184 17.1386 104.774 17.1737C104.02 17.1912 104.108 16.8434 104.316 16.364C105.163 14.4113 106.002 12.4586 106.993 10.1639C107.925 12.3943 108.722 14.3645 109.575 16.3084C109.877 16.9895 109.681 17.1737 109.009 17.1649Z" fill="#E3C5CF"/>
<path d="M114.142 39.3373C116.801 38.3346 116.599 36.0721 115.329 35.0986C114.55 34.4965 113.571 34.6631 112.656 34.5958C111.888 34.5374 111.574 34.9174 111.574 35.616C111.571 37.7558 111.58 39.8956 111.595 42.0324C111.598 42.3657 111.604 42.7924 112.064 42.7837C112.504 42.772 112.524 42.3452 112.568 42.012C112.691 41.1262 112.389 40.2025 112.779 39.1999C113.679 40.0739 114.028 41.1642 114.676 42.05C114.925 42.392 115.095 43 115.623 42.6551C116.138 42.3218 115.652 41.86 115.464 41.5179C115.074 40.7959 114.617 40.109 114.142 39.3373ZM112.589 36.8701C112.515 36.1276 112.524 35.5137 113.585 35.5868C114.526 35.6511 115.285 35.8908 115.25 36.9578C115.218 37.9604 114.544 38.282 113.562 38.3258C112.284 38.3843 112.659 37.5132 112.589 36.8701Z" fill="#E3C5CF"/>
<path d="M106.339 41.7343C105.451 39.6413 104.548 37.5541 103.677 35.4553C103.519 35.0694 103.337 34.6806 102.915 34.6835C102.437 34.6835 102.411 35.1863 102.267 35.5371C102.103 35.9376 101.924 36.3351 101.751 36.7356C101.048 38.3814 100.324 40.0213 99.6524 41.6816C99.5175 42.012 99.2097 42.4884 99.6934 42.7428C100.353 42.7632 100.341 42.2721 100.552 41.974C100.851 41.5589 100.693 40.7521 101.335 40.6995C102.446 40.6059 103.583 40.5942 104.686 40.7404C105.322 40.8222 105.149 41.6963 105.489 42.1464C105.72 42.4563 105.896 42.9591 106.333 42.7486C106.787 42.5294 106.485 42.0763 106.339 41.7343ZM102.944 39.7903C101.666 39.8634 101.379 39.5214 102.033 38.3901C102.379 37.7938 102.595 37.1215 102.965 36.2679C103.331 37.0718 103.598 37.6681 103.874 38.2586C104.539 39.6939 104.492 39.6968 102.944 39.7903Z" fill="#E3C5CF"/>
<path d="M140.774 38.7029C140.774 37.6798 140.786 36.6596 140.768 35.6365C140.756 35.0109 140.941 34.5842 141.653 34.5871C142.629 34.5871 143.606 34.5871 144.582 34.6046C144.881 34.6105 145.194 34.6777 145.209 35.0548C145.224 35.429 144.916 35.54 144.62 35.5634C144.133 35.6014 143.638 35.6482 143.157 35.5897C142.04 35.4553 141.636 35.8382 141.688 37.0162C141.729 37.9487 141.946 38.358 142.905 38.1738C142.952 38.1651 143.005 38.1621 143.052 38.1738C143.626 38.2849 144.629 37.8347 144.655 38.6503C144.681 39.4425 143.673 39.2262 143.116 39.1619C141.908 39.0215 141.729 39.5506 141.68 40.6264C141.618 41.8629 142.175 41.9096 143.131 41.9272C143.825 41.9418 145.118 41.4536 145.106 42.3598C145.095 43.2572 143.77 42.8772 143.022 42.8948C140.788 42.9445 140.786 42.9123 140.777 40.7433C140.774 40.0622 140.777 39.3811 140.777 38.7L140.774 38.7029Z" fill="#E3C5CF"/>
<path d="M131.112 38.7088C131.112 38.4164 131.112 38.127 131.112 37.8347C131.103 34.3649 131.455 34.0668 134.891 34.5988C135.234 34.6514 135.6 34.6309 135.559 35.1366C135.524 35.5605 135.184 35.5079 134.914 35.5313C134.43 35.5693 133.935 35.6453 133.457 35.5868C132.337 35.4436 132.003 35.844 132.012 36.9929C132.021 38.0423 132.326 38.2615 133.305 38.2235C133.87 38.2001 134.955 37.7441 134.961 38.7263C134.967 39.498 133.914 39.2262 133.363 39.1677C132.217 39.0449 132.024 39.5068 132.018 40.5445C132.012 41.6056 132.255 42.0704 133.378 41.9126C133.903 41.8395 134.448 41.9038 134.981 41.9126C135.295 41.9184 135.553 41.9973 135.562 42.389C135.568 42.8041 135.263 42.8568 134.976 42.8626C133.955 42.8889 132.932 42.9065 131.912 42.8918C131.288 42.8831 131.109 42.4738 131.118 41.9096C131.132 40.8427 131.121 39.7757 131.121 38.7088H131.112Z" fill="#E3C5CF"/>
<path d="M123.276 42.7808C122.145 42.6989 121.342 42.2166 121.172 41.0005C121.125 40.6702 121.049 40.2639 121.523 40.185C121.949 40.1148 121.925 40.5358 121.995 40.7784C122.218 41.5296 122.658 41.971 123.479 41.8541C124.05 41.7723 124.461 41.4361 124.625 40.8748C124.798 40.2814 124.575 39.8196 124.024 39.5536C123.455 39.2817 122.834 39.1034 122.292 38.7906C121.377 38.2615 120.846 37.5015 121.163 36.379C121.441 35.3939 122.057 34.7917 123.106 34.6982C124.212 34.5988 125.006 35.0957 125.457 36.0633C125.619 36.4082 125.859 36.987 125.314 37.2004C124.792 37.408 124.722 36.8759 124.622 36.5047C124.417 35.733 123.83 35.5547 123.15 35.6424C122.503 35.7271 122.086 36.1334 122.036 36.7999C121.981 37.5512 122.412 37.9429 123.109 38.1446C123.526 38.2645 123.918 38.4778 124.32 38.6532C125.428 39.1414 125.833 40.0125 125.534 41.1438C125.24 42.2517 124.496 42.8685 123.276 42.7837V42.7808Z" fill="#E3C5CF"/>
<path d="M150.327 38.6474C150.327 37.7266 150.304 36.8058 150.339 35.8879C150.357 35.464 150.113 34.7771 150.899 34.8063C151.558 34.8326 151.353 35.4465 151.359 35.8324C151.385 37.4781 151.429 39.1268 151.353 40.7696C151.309 41.6933 151.629 41.9915 152.502 41.8863C152.834 41.8453 153.179 41.9009 153.52 41.9272C153.769 41.9477 154.009 42.0149 154.047 42.316C154.1 42.7048 153.842 42.8305 153.525 42.8451C152.705 42.8802 151.878 42.9445 151.063 42.8948C150.48 42.8568 150.313 42.3978 150.324 41.8424C150.348 40.7784 150.33 39.7114 150.333 38.6474H150.327Z" fill="#E3C5CF"/>
<path d="M92.6669 34.6192C93.2503 34.6192 93.8366 34.6017 94.4199 34.628C94.6984 34.6397 95.056 34.6514 95.0971 35.0285C95.1381 35.4231 94.7805 35.5342 94.5108 35.505C92.9396 35.3208 92.9806 36.2971 93.0216 37.3992C93.0773 38.9017 93.0363 40.4071 93.0216 41.9126C93.0216 42.24 93.0744 42.6755 92.6054 42.7077C91.9487 42.7515 92.1569 42.202 92.151 41.8687C92.1276 40.1704 92.1012 38.472 92.1481 36.7736C92.1715 35.923 91.9546 35.4786 91.0136 35.5927C90.656 35.6365 90.1372 35.7213 90.1078 35.1542C90.0697 34.4614 90.6589 34.6222 91.0605 34.6046C91.5941 34.5783 92.1305 34.5988 92.6669 34.5988C92.6669 34.6075 92.6669 34.6163 92.6669 34.6251V34.6192Z" fill="#E3C5CF"/>
<path d="M161.587 20.8481C161.484 20.5558 161.37 20.2576 161.244 19.9478C161.082 19.5502 160.915 19.179 160.748 18.8282C159.643 17.0071 159.013 14.9725 158.131 13.0491C157.333 11.3127 156.565 9.56465 155.797 7.81658C155.592 7.34595 155.34 6.95424 154.777 6.91917C154.607 6.90747 154.481 6.93671 154.384 6.99517C154.024 7.20564 153.886 7.73473 153.862 7.84582C153.549 9.2694 152.587 10.4796 152.153 11.871C151.192 14.955 148.639 19.6759 147.821 21.9882C147.748 22.1957 147.586 22.6897 147.821 23.0522C148.026 23.3679 148.519 23.5579 148.908 23.441C149.524 23.2598 149.808 22.3419 150.242 20.9563C150.5 20.1349 150.594 19.5795 151.101 19.2667C151.391 19.0884 151.681 19.0562 151.857 19.0621C153.892 19.1088 155.929 19.0767 157.963 19.0738C158.26 19.0738 158.582 19.065 158.775 19.255C158.878 19.3573 158.91 19.4772 158.925 19.5268C159.341 21.0235 159.769 23.1984 160.572 23.4118C160.713 23.4498 160.886 23.4293 161.103 23.4059C161.469 23.365 161.754 23.2539 161.941 23.1662L161.947 23.1574C162.164 22.336 161.678 21.6228 161.59 20.8481H161.587ZM157.163 17.1561C155.659 17.1415 154.156 17.1328 152.652 17.1561C151.948 17.1708 151.966 16.9808 152.23 16.399C153.103 14.4697 153.901 12.5024 154.868 10.2194C155.865 12.5288 156.738 14.5487 157.618 16.5686C157.826 17.048 157.612 17.162 157.163 17.1561Z" fill="#E3C5CF"/>
</g>
<line y1="53.5" x2="162" y2="53.5" stroke="#E3C5CF"/>
<defs>
<clipPath id="clip0_181_153">
<rect width="162" height="43" fill="white"/>
</clipPath>
</defs>
</svg>
