<svg width="306" height="82" viewBox="0 0 306 82" fill="none" xmlns="http://www.w3.org/2000/svg">
<g clip-path="url(#clip0_158_28)">
<path d="M140.63 12.7544C135.962 17.4815 131.372 22.2922 126.61 26.9246C125.774 27.7384 124.407 29.0875 122.734 30.8267C121.793 31.7688 120.852 32.7108 119.911 33.6529C119.556 34.0097 119.196 34.3609 118.842 34.7176C115.979 37.0199 113.349 39.5618 110.979 42.3713C109.446 44.6234 109.789 47.6782 107.873 49.7742C108.537 50.3038 109.124 51.073 109.883 51.3183C112.225 52.0709 114.612 52.7621 117.131 52.4722C118.238 52.7231 119.451 52.9851 119.196 54.5069C118.953 55.9618 117.729 55.8949 116.594 55.8838C113.238 55.8503 110.049 55.0532 107.065 53.5592C105.702 52.8792 104.728 52.7398 103.449 53.8993C101.743 55.4434 99.6449 56.4412 97.3083 56.8036C93.2829 57.4279 90.3427 54.0052 91.5054 50.1087C91.7878 49.161 92.1976 48.2691 93.1555 48.3193C94.2518 48.3806 94.8664 49.5401 95.0049 50.4264C95.2983 52.3217 95.4146 53.0743 96.0791 53.5648C96.9207 54.1892 98.46 53.4199 99.5453 52.8736C100.597 52.344 103.106 51.0452 104.894 48.0183C106.168 45.8665 106.516 43.7873 106.616 42.494C107.297 39.6064 109.861 38.2518 111.666 36.2952C112.69 35.1859 113.881 34.2271 114.994 33.207C120.221 28.6527 124.794 23.435 129.772 18.6242C132.629 15.8649 135.431 13.0442 138.249 10.2459C139.213 9.28705 140.331 8.28365 141.549 9.52675C142.867 10.8702 141.511 11.8569 140.63 12.7488V12.7544Z" fill="#E3C5CF"/>
<path d="M23.4771 24.5052C23.4771 21.6288 23.4937 18.7524 23.4716 15.8759C23.4605 14.5882 23.5712 13.3117 25.1881 13.2448C26.9267 13.1723 26.9046 14.5158 26.9046 15.7812C26.899 21.2553 26.8713 26.7294 26.9267 32.2035C26.9655 35.838 28.5712 38.681 31.7993 40.3087C34.8447 41.8473 37.9067 41.4292 40.6697 39.4447C43.0949 37.6999 44.1137 35.1858 44.1248 32.2369C44.147 27.1363 44.1248 22.0301 44.147 16.9295C44.147 16.1045 44.2023 15.2628 44.385 14.4656C44.5567 13.7298 44.9664 13.0553 45.8967 13.15C46.6995 13.2281 47.2643 13.6573 47.4692 14.4823C47.4913 14.5715 47.5522 14.6607 47.5522 14.7443C47.4692 22.0468 48.6043 29.4441 46.8878 36.624C45.5866 42.0647 39.7118 45.3536 33.92 44.6846C28.5657 44.0659 23.8702 39.1715 23.5823 33.6863C23.4217 30.6315 23.5546 27.5655 23.5546 24.5052C23.5269 24.5052 23.4993 24.5052 23.4716 24.5052H23.4771Z" fill="#E3C5CF"/>
<path d="M17.558 35.8325C17.5414 40.7714 13.9977 44.562 9.24136 44.7293C4.54039 44.8965 0.398672 41.3344 0.166115 36.9306C0.105208 35.8046 -0.044293 34.5559 1.45071 34.2772C3.12844 33.9595 3.39422 35.2137 3.61017 36.4735C4.08082 39.1716 5.73086 40.8439 8.37757 41.1115C10.764 41.3512 12.6023 40.1805 13.6156 37.895C14.6732 35.5147 14.0309 33.2013 11.6777 31.9861C9.39639 30.8099 6.91579 30.0295 4.61237 28.8867C0.564783 26.8688 -0.786259 23.7025 0.431894 19.4826C1.57807 15.4913 5.37649 12.81 9.37978 13.1724C13.5935 13.5514 17.1206 16.7289 17.4916 20.5808C17.5968 21.7124 18.0342 23.1896 16.3454 23.552C14.6012 23.9255 14.2912 22.7214 14.0032 21.272C13.5436 18.9642 12.2314 17.2083 9.73415 16.8571C7.33107 16.5226 5.44293 17.3644 4.26354 19.6332C2.9734 22.1082 3.67107 24.5108 6.32332 25.8542C7.95676 26.6792 9.72308 27.2423 11.434 27.9168C15.62 29.578 17.5746 32.1032 17.558 35.8325Z" fill="#E3C5CF"/>
<path d="M100.542 49.6738C98.471 48.7875 95.5198 47.1765 93.1333 44.1997C90.5531 40.9777 86.8986 37.9173 87.7402 22.543C88.0614 16.662 87.2419 11.0318 82.6185 6.71719C81.057 5.25669 79.3239 4.10835 77.242 3.46172C76.1456 3.12168 74.7614 2.55866 75.4535 0.947644C76.0349 -0.429243 77.2143 0.00556371 78.3162 0.345605C82.1367 1.51624 85.0769 3.92997 87.6073 6.93459C88.4877 8.61807 89.7059 11.3161 90.4368 14.8057C91.223 18.5573 90.7302 19.8171 91.1178 26.0047C91.4944 31.975 91.7103 35.0186 93.1222 38.0065C94.8387 41.641 97.4965 43.9656 99.3736 45.3035L102.807 47.5388C102.054 48.2523 101.3 48.9603 100.542 49.6738Z" fill="#E3C5CF"/>
<path d="M57.9066 29.0317C57.9066 33.2014 57.9066 37.3711 57.9066 41.5408C57.9066 42.9399 58.0893 44.59 56.1236 44.6625C54.2244 44.7349 54.3407 43.0459 54.3351 41.8195C54.2798 33.1122 54.3019 24.3994 54.2964 15.6921C54.2964 14.3264 54.7726 13.1836 56.2787 13.2449C57.674 13.3007 57.9176 14.4769 57.9121 15.6921C57.8955 20.1405 57.9065 24.5889 57.9121 29.0373L57.9066 29.0317Z" fill="#E3C5CF"/>
<path d="M91.6937 71.0853C90.5309 67.5121 88.2386 66.0181 83.8255 65.9568C80.9758 65.9196 79.5491 67.2965 79.5454 70.0874C79.5398 71.2915 79.5398 72.4956 79.5398 73.6997C79.5398 75.7344 79.5288 77.7746 79.5398 79.8093C79.5454 80.5562 79.5564 81.5875 80.387 81.6433C83.1832 81.8272 86.1455 82.4404 88.6372 80.6176C91.9816 78.176 92.934 74.9205 91.6937 71.0853ZM89.1079 77.8638C87.8288 79.603 84.5398 80.5228 82.3194 79.8985C81.428 79.6476 81.4723 79.0567 81.4612 78.4268C81.439 76.944 81.4557 75.4556 81.4557 73.9728H81.4169C81.4169 73.4154 81.3062 72.8356 81.4335 72.3061C81.7934 70.8344 80.3925 68.783 82.4745 67.919C84.6173 67.0271 88.0503 68.3594 89.3515 70.2547C90.7136 72.2448 90.6029 75.8291 89.1079 77.8638Z" fill="#E3C5CF"/>
<path d="M114.855 80.3166C112.884 75.7623 110.94 71.1912 108.903 66.6703C108.471 65.7171 107.64 65.5109 107.12 66.7205C105.243 71.1188 103.399 75.5337 101.544 79.9431C101.317 80.495 101.323 81.1806 101.849 81.4315C102.546 81.7659 102.89 81.2698 103.238 80.5786C103.781 79.5139 103.676 77.7691 105.259 77.613C107.17 77.4179 109.158 77.3454 111.035 77.6687C112.408 77.9084 112.496 79.6421 113.083 80.7514C113.382 81.32 113.687 81.66 114.34 81.4426C114.733 81.3144 114.888 80.9967 114.888 80.5897C114.883 80.5005 114.888 80.4002 114.855 80.3166ZM110.276 75.4835C109.385 76.4033 107.668 75.7623 106.317 75.7901C105.226 75.818 105.542 75.0933 105.808 74.4634C106.45 72.9472 107.076 71.4309 107.962 69.2959C108.648 70.6449 109.108 71.4253 109.451 72.2559C109.894 73.3207 111.018 74.7198 110.276 75.4835Z" fill="#E3C5CF"/>
<path d="M70.005 80.2552C68.056 75.79 66.1457 71.3026 64.1191 66.8654C63.5488 65.6278 62.746 65.7951 62.2144 67.0326C60.4758 71.0908 58.7039 75.1434 57.0373 79.2295C56.7659 79.8928 56.107 81.0467 57.1369 81.4202C58.3828 81.8717 58.416 80.4726 58.7925 79.7033C59.241 78.7724 59.2189 77.3732 60.7914 77.5237C63.6153 77.7913 67.2808 76.0687 68.2996 80.7123C68.4159 81.2586 68.8755 81.6822 69.551 81.4258C69.9331 81.2809 70.0659 80.9352 70.0327 80.5283C70.0272 80.4391 70.0383 80.3388 70.005 80.2552ZM63.2111 75.8569C61.1015 75.9573 59.9608 75.6897 61.478 73.3373C62.2089 72.2112 62.2753 70.734 63.4492 69.4742C64.0638 70.8176 64.5566 71.8712 65.0217 72.9359C66.19 75.6061 66.0571 75.7231 63.2111 75.8569Z" fill="#E3C5CF"/>
<path d="M47.8402 79.6197C46.0683 75.3887 44.2245 71.1856 42.4415 66.949C41.8601 65.5721 41.1237 65.6446 40.6032 66.8264C38.6708 71.2135 36.8657 75.6563 34.9776 80.0657C34.673 80.7792 34.5568 81.3032 35.5756 81.5429C36.6221 81.5262 36.5999 80.4949 36.9654 79.826C37.3862 79.0567 37.2035 77.7188 38.3441 77.6352C40.4427 77.4847 42.58 77.4401 44.673 77.6631C46.0517 77.808 45.5755 79.5194 46.24 80.3667C46.6165 80.8517 46.7549 81.7491 47.5744 81.4816C48.6707 81.1137 48.0949 80.2218 47.8402 79.6197ZM41.1514 75.8681C38.9643 75.896 38.5213 75.2828 39.6343 73.354C40.3098 72.189 40.7084 70.8623 41.467 69.0283C42.1758 70.7062 42.591 71.8211 43.1004 72.8914C44.5401 75.9239 44.5567 75.8235 41.1514 75.8681Z" fill="#E3C5CF"/>
<path d="M143.161 74.6585C140.979 74.4857 140.398 75.2382 140.387 77.4178C140.375 79.564 141.062 80.0322 143.044 79.9932C144.384 79.9709 146.821 78.9898 146.876 81.0301C146.915 82.4014 144.429 81.5596 143.089 81.777C142.197 81.922 141.284 81.9331 140.381 82C139.849 81.8216 139.318 81.6377 138.792 81.4593C138.764 77.1168 138.792 72.7799 138.692 68.443C138.648 66.5086 139.379 65.7672 141.295 65.9568C142.657 66.0906 144.047 65.9679 145.42 65.9902C146.156 66.0014 147.042 66.0069 147.025 67.0215C147.014 67.9357 146.134 67.7294 145.547 67.8186C145.281 67.8632 144.999 67.8298 144.722 67.8354C141.643 67.906 140.294 69.5653 140.674 72.8133C142.563 72.975 144.501 72.4733 146.339 73.2481C146.079 75.4556 144.312 74.7477 143.161 74.6585Z" fill="#E3C5CF"/>
<path d="M21.5945 77.8694C23.0009 74.363 24.3354 71.0741 25.631 67.774C25.9356 67.0048 26.1626 65.8118 27.0818 66.0906C28.4051 66.4975 27.5579 67.6235 27.2645 68.3984C25.7141 72.4398 24.1028 76.4534 22.5469 80.4949C22.3254 81.0691 22.0486 81.4816 21.445 81.5931C20.6809 81.7324 20.548 81.0356 20.3653 80.5953C18.6101 76.342 16.8936 72.0664 15.1882 67.7908C14.9833 67.2779 14.8116 66.5923 15.393 66.2857C16.1793 65.8732 16.5447 66.5477 16.7994 67.1609C17.9567 69.9648 19.1084 72.7743 20.2324 75.595C20.5314 76.3531 20.7529 77.1335 21.5945 77.8694Z" fill="#E3C5CF"/>
<path d="M104.938 40.8049C103.465 41.5352 101.993 42.2598 100.525 42.9845C101.444 41.1282 102.829 40.2252 104.938 40.8049Z" fill="#333333"/>
<path d="M104.938 40.8049C103.465 41.5351 101.993 42.2598 100.525 42.9845C98.914 43.2632 98.687 41.563 98.6427 40.961C98.5541 39.5897 100.127 39.2106 101.079 38.4804C101.577 38.3187 102.209 38.1626 102.956 38.0957C104.058 38.0009 104.983 38.1347 105.63 38.2908C105.697 38.4915 105.863 39.088 105.63 39.7848C105.448 40.3311 105.104 40.6655 104.944 40.8049H104.938Z" fill="#E3C5CF"/>
<path d="M274.882 29.0986C274.871 32.6328 274.854 36.1726 274.837 39.7068C272.938 41.6467 270.701 43.057 268.21 44.0883C266.034 44.59 263.824 44.7572 261.604 44.7684C256.299 44.0103 252.274 41.1283 249.262 36.8638C247.8 34.7957 247.318 32.2426 247.174 29.6895C247.734 27.0417 247.44 24.3436 248.974 21.7515C250.43 19.2988 252.169 17.3644 254.312 15.9708C254.799 15.6531 256.493 14.6107 258.941 13.9585C259.666 13.7633 261.011 13.4623 262.739 13.4066C264.245 13.3564 265.541 13.5181 266.532 13.7076C268.331 14.4211 270.136 15.1291 271.936 15.8426C273.143 17.2585 275.89 17.9553 274.206 20.7314C271.338 21.4338 269.998 18.4069 267.595 17.9888C265.303 16.7624 262.938 16.506 260.48 17.4202C254.544 18.8138 251.931 22.1529 251.2 27.064C250.209 33.6697 252.905 37.1481 257.994 40.1472C262.036 42.533 266.831 41.5575 271.017 37.962C271.781 35.6151 271.742 33.2739 271.017 30.927C268.758 30.6929 266.493 30.3919 264.256 31.072C262.562 31.5848 261.582 30.2024 261.355 29.2213C261.106 28.1343 262.302 27.1754 263.642 27.1643C266.764 27.1364 269.893 27.142 273.016 27.2033C274.167 27.22 274.893 27.8444 274.887 29.0986H274.882Z" fill="#E3C5CF"/>
<path d="M170.015 13.3899C167.718 13.5181 165.409 13.5125 163.116 13.401C160.935 13.3007 160.159 14.2873 160.187 16.3778C160.254 20.6366 160.209 24.8955 160.209 29.1599H160.187C160.187 33.4188 160.259 37.6777 160.154 41.9366C160.104 43.9434 160.752 44.852 162.834 44.7516C165.126 44.6457 167.446 44.5565 169.727 44.7572C177.424 45.4485 183.404 39.4392 184.844 32.8892C186.953 23.2789 180.896 12.8101 170.015 13.3899ZM176.095 39.8071C172.452 42.0871 168.41 41.1561 164.5 41.2007C163.238 41.2175 163.659 39.9688 163.653 39.2385C163.603 35.8102 163.631 32.382 163.626 28.9593C163.626 25.6202 163.731 22.2811 163.581 18.9531C163.504 17.1749 164.124 16.6899 165.768 16.846C167.136 16.9798 168.526 16.8739 169.91 16.8795C175.829 16.9018 179.711 19.7224 181.228 25.0962C182.778 30.5759 180.536 37.0255 176.095 39.8071Z" fill="#E3C5CF"/>
<path d="M244.112 41.9309C243.453 40.3255 242.656 38.7813 242.003 37.1759C239.511 30.9938 236.46 25.0515 234.411 18.6855C233.603 18.011 233.487 16.9853 233.127 16.0822C232.545 14.6217 231.875 13.2337 230.054 13.0219C229.384 13.596 228.824 14.1033 228.448 15.0732C225.696 22.0692 222.745 28.9815 219.871 35.9272C219.024 37.973 218.193 40.03 217.402 42.0981C216.992 43.1684 217.086 44.1495 218.359 44.5676C219.594 44.9745 220.253 44.2666 220.674 43.213C220.779 42.9566 220.823 42.6723 220.923 42.4159C222.108 39.4112 222.7 37.9061 223.808 37.1424C224.323 36.7857 224.888 36.4345 229.86 36.3788C236.682 36.2951 237.479 36.847 237.944 37.332C238.714 38.1403 239.876 39.9854 240.159 41.6522C240.264 42.2709 240.607 42.8618 240.923 43.4248C241.454 44.3836 242.208 45.1083 243.376 44.5509C244.533 44.0046 244.533 42.951 244.112 41.9309ZM234.439 32.7331C231.964 32.6717 229.483 32.6327 227.014 32.7219C225.652 32.7777 225.115 32.6439 225.79 31.1109C227.429 27.4262 228.941 23.6858 230.696 19.5105C232.446 23.552 233.946 27.2088 235.618 30.782C236.333 32.3038 236.072 32.7721 234.439 32.7331Z" fill="#E3C5CF"/>
<path d="M215.591 42.4438C215.259 41.5853 214.843 40.4593 214.389 39.3555C212.939 35.8603 211.499 32.3652 210.004 28.8923C207.989 24.2209 205.923 19.5718 203.88 14.9172C203.459 13.9528 203.005 13.1222 201.698 13.1612C200.27 13.2058 200.27 14.2817 199.938 15.2182C199.511 16.4334 198.974 17.6096 198.476 18.8026C195.253 26.4618 192.047 34.1267 188.792 41.7693C188.26 43.0124 188.332 43.9544 189.6 44.5286C190.885 45.1139 191.471 44.1384 191.914 43.2075C192.706 41.5407 193.576 39.8795 194.102 38.1236C194.545 36.6408 195.342 36.3175 196.715 36.3453C200.314 36.4178 203.913 36.4066 207.507 36.3621C208.742 36.3453 209.484 36.624 209.921 37.9619C210.558 39.8851 211.493 41.7135 212.341 43.5642C212.723 44.4115 213.431 44.8519 214.356 44.6234C215.292 44.3892 215.685 43.6924 215.591 42.4438ZM205.907 32.7331C203.238 32.7052 200.569 32.6829 197.906 32.7498C196.483 32.7833 196.649 32.1199 197.042 31.2057C198.642 27.482 200.226 23.7582 202.097 19.3823C203.858 23.6356 205.364 27.3928 206.975 31.0998C207.546 32.3986 207.175 32.7498 205.907 32.7331Z" fill="#E3C5CF"/>
<path d="M215.602 75.0152C220.624 73.1032 220.242 68.7886 217.844 66.9323C216.372 65.784 214.522 66.1017 212.795 65.9735C211.344 65.862 210.751 66.5867 210.751 67.919C210.746 71.9995 210.763 76.08 210.79 80.1549C210.796 80.7904 210.807 81.6042 211.676 81.5875C212.507 81.5652 212.546 80.7513 212.629 80.1159C212.861 78.4268 212.291 76.6653 213.027 74.7532C214.727 76.42 215.386 78.4993 216.61 80.1883C217.08 80.8405 217.401 82 218.398 81.3422C219.373 80.7067 218.454 79.826 218.099 79.1738C217.363 77.7969 216.499 76.4869 215.602 75.0152ZM212.667 70.3104C212.529 68.8945 212.546 67.7239 214.55 67.8632C216.327 67.9859 217.761 68.443 217.695 70.4776C217.634 72.3897 216.361 73.0029 214.506 73.0865C212.091 73.198 212.8 71.5368 212.667 70.3104Z" fill="#E3C5CF"/>
<path d="M200.862 79.5862C199.185 75.5949 197.479 71.6148 195.835 67.6123C195.536 66.8765 195.192 66.1351 194.395 66.1407C193.492 66.1407 193.443 67.0995 193.171 67.7684C192.861 68.5321 192.523 69.2902 192.197 70.0539C190.868 73.1923 189.5 76.3196 188.232 79.4859C187.978 80.1158 187.396 81.0244 188.31 81.5094C189.556 81.5484 189.533 80.6119 189.932 80.0433C190.497 79.2517 190.198 77.7132 191.411 77.6128C193.509 77.4345 195.657 77.4122 197.739 77.6909C198.941 77.847 198.614 79.5137 199.257 80.3722C199.694 80.9631 200.026 81.9219 200.851 81.5205C201.709 81.1025 201.139 80.2384 200.862 79.5862ZM194.45 75.8792C192.036 76.0186 191.494 75.3664 192.728 73.209C193.382 72.0719 193.791 70.7897 194.489 69.162C195.181 70.695 195.685 71.8322 196.206 72.9582C197.463 75.6952 197.374 75.7008 194.45 75.8792Z" fill="#E3C5CF"/>
<path d="M265.906 73.8056C265.906 71.8546 265.928 69.9091 265.895 67.958C265.873 66.7651 266.222 65.9512 267.567 65.9568C269.411 65.9568 271.255 65.9568 273.099 65.9903C273.664 66.0014 274.256 66.1296 274.284 66.8487C274.311 67.5623 273.73 67.7741 273.171 67.8187C272.252 67.8911 271.316 67.9803 270.408 67.8688C268.298 67.6124 267.534 68.3427 267.634 70.5892C267.711 72.3674 268.121 73.1478 269.932 72.7967C270.02 72.7799 270.12 72.7744 270.208 72.7967C271.294 73.0085 273.187 72.15 273.237 73.7053C273.287 75.216 271.382 74.8035 270.33 74.6808C268.049 74.4132 267.711 75.4222 267.617 77.4736C267.501 79.8316 268.553 79.9208 270.358 79.9542C271.67 79.9821 274.112 79.0512 274.09 80.7793C274.068 82.4906 271.565 81.7659 270.153 81.7994C265.934 81.8941 265.928 81.8328 265.912 77.6966C265.906 76.3977 265.912 75.0989 265.912 73.8001L265.906 73.8056Z" fill="#E3C5CF"/>
<path d="M247.656 73.8167C247.656 73.2593 247.656 72.7074 247.656 72.1499C247.639 65.5331 248.304 64.9645 254.793 65.979C255.441 66.0794 256.133 66.0404 256.056 67.0047C255.989 67.813 255.347 67.7127 254.838 67.7573C253.924 67.8298 252.988 67.9747 252.086 67.8632C249.97 67.5901 249.339 68.3538 249.356 70.5445C249.372 72.5457 249.948 72.9638 251.798 72.8913C252.866 72.8468 254.915 71.9771 254.926 73.8502C254.937 75.3218 252.949 74.8034 251.908 74.6919C249.743 74.4578 249.378 75.3385 249.367 77.3175C249.356 79.341 249.815 80.2273 251.936 79.9263C252.927 79.7869 253.957 79.9096 254.965 79.9263C255.557 79.9374 256.045 80.0879 256.061 80.8349C256.072 81.6265 255.496 81.7268 254.954 81.738C253.027 81.7882 251.095 81.8216 249.168 81.7937C247.988 81.777 247.65 80.9966 247.667 79.9207C247.695 77.886 247.673 75.8514 247.673 73.8167H247.656Z" fill="#E3C5CF"/>
<path d="M232.855 81.5819C230.718 81.4259 229.201 80.5061 228.88 78.1871C228.791 77.5572 228.647 76.7823 229.544 76.6318C230.347 76.498 230.303 77.3008 230.436 77.7634C230.857 79.1961 231.687 80.0378 233.238 79.8148C234.317 79.6587 235.092 79.0177 235.403 77.9474C235.729 76.8158 235.308 75.935 234.267 75.4277C233.193 74.9093 232.019 74.5693 230.995 73.9728C229.267 72.9638 228.265 71.5145 228.863 69.3739C229.389 67.4953 230.552 66.347 232.534 66.1686C234.622 65.9791 236.122 66.9267 236.975 68.7719C237.28 69.4297 237.734 70.5334 236.704 70.9403C235.718 71.3361 235.585 70.3216 235.397 69.6136C235.009 68.142 233.902 67.8019 232.617 67.9692C231.394 68.1308 230.607 68.9057 230.513 70.1766C230.408 71.6093 231.222 72.3562 232.54 72.7409C233.326 72.9694 234.068 73.3764 234.827 73.7108C236.92 74.6418 237.684 76.3029 237.119 78.4602C236.565 80.573 235.159 81.7492 232.855 81.5875V81.5819Z" fill="#E3C5CF"/>
<path d="M283.951 73.6997C283.951 71.9438 283.907 70.1878 283.974 68.4374C284.007 67.6291 283.547 66.3191 285.031 66.3749C286.277 66.4251 285.889 67.5957 285.9 68.3315C285.95 71.4699 286.033 74.6139 285.889 77.7467C285.806 79.5083 286.41 80.0769 288.06 79.8762C288.686 79.7981 289.339 79.9041 289.981 79.9542C290.452 79.9932 290.906 80.1215 290.978 80.6956C291.078 81.437 290.59 81.6767 289.992 81.7046C288.442 81.7715 286.881 81.8941 285.341 81.7994C284.239 81.7269 283.924 80.8517 283.946 79.7926C283.99 77.7635 283.957 75.7288 283.963 73.6997H283.951Z" fill="#E3C5CF"/>
<path d="M175.037 66.0181C176.139 66.0181 177.247 65.9846 178.349 66.0348C178.875 66.0571 179.55 66.0794 179.628 66.7985C179.705 67.5511 179.03 67.7629 178.52 67.7071C175.552 67.3559 175.63 69.2178 175.707 71.3194C175.813 74.1846 175.735 77.0555 175.707 79.9263C175.707 80.5506 175.807 81.3812 174.921 81.4426C173.681 81.5262 174.074 80.4782 174.063 79.8427C174.019 76.6039 173.969 73.3652 174.057 70.1264C174.102 68.5043 173.692 67.657 171.915 67.8744C171.239 67.958 170.259 68.1196 170.204 67.0382C170.132 65.7171 171.245 66.0237 172.003 65.9902C173.011 65.94 174.024 65.9791 175.037 65.9791C175.037 65.9958 175.037 66.0125 175.037 66.0292V66.0181Z" fill="#E3C5CF"/>
<path d="M305.219 39.7569C305.025 39.1994 304.81 38.6308 304.571 38.0399C304.267 37.2818 303.951 36.5739 303.636 35.9049C301.548 32.4321 300.358 28.5522 298.691 24.8843C297.185 21.573 295.734 18.2395 294.284 14.906C293.896 14.0085 293.42 13.2616 292.357 13.1947C292.036 13.1724 291.797 13.2281 291.615 13.3396C290.934 13.741 290.673 14.7499 290.629 14.9618C290.037 17.6765 288.22 19.9843 287.401 22.6378C285.585 28.5188 280.762 37.5215 279.217 41.9309C279.079 42.3267 278.774 43.2688 279.217 43.96C279.605 44.562 280.535 44.9244 281.271 44.7014C282.434 44.3558 282.971 42.6054 283.791 39.9631C284.278 38.3967 284.455 37.3376 285.413 36.7411C285.961 36.4011 286.51 36.3397 286.842 36.3509C290.684 36.4401 294.533 36.3788 298.375 36.3732C298.935 36.3732 299.544 36.3565 299.909 36.7188C300.103 36.9139 300.164 37.1425 300.192 37.2372C300.978 40.0913 301.786 44.2387 303.303 44.6456C303.569 44.7181 303.896 44.6791 304.306 44.6345C304.998 44.5565 305.535 44.3446 305.889 44.1774L305.9 44.1607C306.31 42.5943 305.391 41.2341 305.225 39.7569H305.219ZM296.864 32.7163C294.023 32.6885 291.183 32.6718 288.342 32.7163C287.013 32.7442 287.047 32.3819 287.545 31.2726C289.195 27.5934 290.701 23.8418 292.528 19.4882C294.411 23.892 296.061 27.744 297.722 31.5959C298.115 32.5101 297.711 32.7275 296.864 32.7163Z" fill="#E3C5CF"/>
</g>
<defs>
<clipPath id="clip0_158_28">
<rect width="306" height="82" fill="white"/>
</clipPath>
</defs>
</svg>
