<svg width="30" height="31" viewBox="0 0 30 31" fill="none" xmlns="http://www.w3.org/2000/svg">
<rect y="0.457703" width="30" height="30" rx="2" fill="#212121" fill-opacity="0.1"/>
<path d="M8.12926 13.1674V22.3284H21.8708V9.73204H19.5805V10.3046C19.5805 10.4565 19.5202 10.6021 19.4128 10.7095C19.3055 10.8168 19.1598 10.8772 19.008 10.8772C18.8561 10.8772 18.7105 10.8168 18.6031 10.7095C18.4957 10.6021 18.4354 10.4565 18.4354 10.3046V9.73204H11.5646V10.3046C11.5646 10.4565 11.5043 10.6021 11.3969 10.7095C11.2896 10.8168 11.1439 10.8772 10.9921 10.8772C10.8402 10.8772 10.6946 10.8168 10.5872 10.7095C10.4798 10.6021 10.4195 10.4565 10.4195 10.3046V9.73204H8.12926V12.0223H21.8708V13.1674H8.12926ZM11.5646 8.58691H18.4354V8.01434C18.4354 7.86249 18.4957 7.71686 18.6031 7.60948C18.7105 7.5021 18.8561 7.44178 19.008 7.44178C19.1598 7.44178 19.3055 7.5021 19.4128 7.60948C19.5202 7.71686 19.5805 7.86249 19.5805 8.01434V8.58691H22.4434C22.5952 8.58691 22.7408 8.64723 22.8482 8.75461C22.9556 8.86198 23.0159 9.00762 23.0159 9.15947V22.901C23.0159 23.0529 22.9556 23.1985 22.8482 23.3059C22.7408 23.4132 22.5952 23.4736 22.4434 23.4736H7.55669C7.40484 23.4736 7.25921 23.4132 7.15183 23.3059C7.04445 23.1985 6.98413 23.0529 6.98413 22.901V9.15947C6.98413 9.00762 7.04445 8.86198 7.15183 8.75461C7.25921 8.64723 7.40484 8.58691 7.55669 8.58691H10.4195V8.01434C10.4195 7.86249 10.4798 7.71686 10.5872 7.60948C10.6946 7.5021 10.8402 7.44178 10.9921 7.44178C11.1439 7.44178 11.2896 7.5021 11.3969 7.60948C11.5043 7.71686 11.5646 7.86249 11.5646 8.01434V8.58691ZM10.9921 15.4577H12.1372C12.2891 15.4577 12.4347 15.518 12.5421 15.6254C12.6494 15.7328 12.7098 15.8784 12.7098 16.0302C12.7098 16.1821 12.6494 16.3277 12.5421 16.4351C12.4347 16.5425 12.2891 16.6028 12.1372 16.6028H10.9921C10.8402 16.6028 10.6946 16.5425 10.5872 16.4351C10.4798 16.3277 10.4195 16.1821 10.4195 16.0302C10.4195 15.8784 10.4798 15.7328 10.5872 15.6254C10.6946 15.518 10.8402 15.4577 10.9921 15.4577ZM10.9921 18.8931H12.1372C12.2891 18.8931 12.4347 18.9534 12.5421 19.0608C12.6494 19.1681 12.7098 19.3138 12.7098 19.4656C12.7098 19.6175 12.6494 19.7631 12.5421 19.8705C12.4347 19.9779 12.2891 20.0382 12.1372 20.0382H10.9921C10.8402 20.0382 10.6946 19.9779 10.5872 19.8705C10.4798 19.7631 10.4195 19.6175 10.4195 19.4656C10.4195 19.3138 10.4798 19.1681 10.5872 19.0608C10.6946 18.9534 10.8402 18.8931 10.9921 18.8931ZM14.4275 15.4577H15.5726C15.7244 15.4577 15.8701 15.518 15.9775 15.6254C16.0848 15.7328 16.1452 15.8784 16.1452 16.0302C16.1452 16.1821 16.0848 16.3277 15.9775 16.4351C15.8701 16.5425 15.7244 16.6028 15.5726 16.6028H14.4275C14.2756 16.6028 14.13 16.5425 14.0226 16.4351C13.9152 16.3277 13.8549 16.1821 13.8549 16.0302C13.8549 15.8784 13.9152 15.7328 14.0226 15.6254C14.13 15.518 14.2756 15.4577 14.4275 15.4577ZM14.4275 18.8931H15.5726C15.7244 18.8931 15.8701 18.9534 15.9775 19.0608C16.0848 19.1681 16.1452 19.3138 16.1452 19.4656C16.1452 19.6175 16.0848 19.7631 15.9775 19.8705C15.8701 19.9779 15.7244 20.0382 15.5726 20.0382H14.4275C14.2756 20.0382 14.13 19.9779 14.0226 19.8705C13.9152 19.7631 13.8549 19.6175 13.8549 19.4656C13.8549 19.3138 13.9152 19.1681 14.0226 19.0608C14.13 18.9534 14.2756 18.8931 14.4275 18.8931ZM17.8628 15.4577H19.008C19.1598 15.4577 19.3055 15.518 19.4128 15.6254C19.5202 15.7328 19.5805 15.8784 19.5805 16.0302C19.5805 16.1821 19.5202 16.3277 19.4128 16.4351C19.3055 16.5425 19.1598 16.6028 19.008 16.6028H17.8628C17.711 16.6028 17.5654 16.5425 17.458 16.4351C17.3506 16.3277 17.2903 16.1821 17.2903 16.0302C17.2903 15.8784 17.3506 15.7328 17.458 15.6254C17.5654 15.518 17.711 15.4577 17.8628 15.4577ZM17.8628 18.8931H19.008C19.1598 18.8931 19.3055 18.9534 19.4128 19.0608C19.5202 19.1681 19.5805 19.3138 19.5805 19.4656C19.5805 19.6175 19.5202 19.7631 19.4128 19.8705C19.3055 19.9779 19.1598 20.0382 19.008 20.0382H17.8628C17.711 20.0382 17.5654 19.9779 17.458 19.8705C17.3506 19.7631 17.2903 19.6175 17.2903 19.4656C17.2903 19.3138 17.3506 19.1681 17.458 19.0608C17.5654 18.9534 17.711 18.8931 17.8628 18.8931Z" fill="#212121"/>
</svg>
