<svg width="25" height="25" viewBox="0 0 25 25" fill="none" xmlns="http://www.w3.org/2000/svg">
<path d="M9.55504 1.43793C10.922 1.43793 12.025 1.43793 12.892 1.55493C13.792 1.67493 14.55 1.93493 15.152 2.53593C15.676 3.06093 15.942 3.70593 16.081 4.46393C16.216 5.20093 16.242 6.10193 16.248 7.18393C16.2491 7.38284 16.1711 7.57403 16.0312 7.71543C15.8913 7.85683 15.7009 7.93687 15.502 7.93793C15.3031 7.93899 15.1119 7.86099 14.9705 7.72109C14.8291 7.58118 14.7491 7.39084 14.748 7.19193C14.742 6.09893 14.714 5.32393 14.606 4.73493C14.501 4.16893 14.334 3.83993 14.091 3.59693C13.814 3.31993 13.425 3.13993 12.691 3.04093C11.936 2.93993 10.935 2.93793 9.50004 2.93793H8.50004C7.06404 2.93793 6.06304 2.93993 5.30804 3.04093C4.57404 3.13993 4.18604 3.32093 3.90804 3.59693C3.63204 3.87393 3.45204 4.26193 3.35304 4.99693C3.25104 5.75093 3.25004 6.75293 3.25004 8.18793V16.1879C3.25004 17.6229 3.25104 18.6239 3.35304 19.3799C3.45204 20.1139 3.63204 20.5019 3.90904 20.7789C4.18604 21.0559 4.57404 21.2359 5.30804 21.3349C6.06304 21.4359 7.06404 21.4379 8.50004 21.4379H9.50004C10.935 21.4379 11.936 21.4359 12.692 21.3349C13.425 21.2359 13.814 21.0549 14.091 20.7789C14.334 20.5349 14.501 20.2069 14.606 19.6409C14.714 19.0519 14.742 18.2769 14.748 17.1839C14.7486 17.0854 14.7685 16.988 14.8067 16.8972C14.8448 16.8064 14.9005 16.724 14.9705 16.6548C15.0405 16.5855 15.1235 16.5307 15.2147 16.4935C15.3059 16.4563 15.4035 16.4374 15.502 16.4379C15.6005 16.4385 15.698 16.4584 15.7887 16.4965C15.8795 16.5347 15.9619 16.5904 16.0312 16.6604C16.1005 16.7304 16.1553 16.8134 16.1925 16.9046C16.2297 16.9958 16.2486 17.0934 16.248 17.1919C16.242 18.2739 16.216 19.1749 16.081 19.9119C15.941 20.6699 15.676 21.3149 15.151 21.8399C14.55 22.4419 13.791 22.6999 12.891 22.8219C12.025 22.9379 10.922 22.9379 9.55504 22.9379H8.44504C7.07704 22.9379 5.97504 22.9379 5.10804 22.8219C4.20804 22.6999 3.45004 22.4419 2.84804 21.8399C2.24604 21.2379 1.98804 20.4799 1.86604 19.5799C1.75004 18.7129 1.75004 17.6099 1.75004 16.2429V8.13293C1.75004 6.76593 1.75004 5.66293 1.86604 4.79593C1.98704 3.89593 2.24604 3.13793 2.84804 2.53593C3.45004 1.93393 4.20804 1.67593 5.10804 1.55493C5.97504 1.43793 7.07804 1.43793 8.44504 1.43793H9.55504Z" fill="white"/>
<path d="M9.49993 11.4379C9.30102 11.4379 9.11025 11.5169 8.9696 11.6576C8.82895 11.7982 8.74993 11.989 8.74993 12.1879C8.74993 12.3868 8.82895 12.5776 8.9696 12.7183C9.11025 12.8589 9.30102 12.9379 9.49993 12.9379H20.4729L18.5119 14.6179C18.3608 14.7473 18.2672 14.9315 18.2518 15.1299C18.2364 15.3284 18.3005 15.5248 18.4299 15.6759C18.5594 15.8271 18.7435 15.9207 18.9419 15.936C19.1404 15.9514 19.3368 15.8873 19.4879 15.7579L22.9879 12.7579C23.0703 12.6875 23.1364 12.6001 23.1817 12.5017C23.227 12.4033 23.2505 12.2963 23.2505 12.1879C23.2505 12.0796 23.227 11.9725 23.1817 11.8741C23.1364 11.7757 23.0703 11.6883 22.9879 11.6179L19.4879 8.61792C19.4131 8.55384 19.3263 8.50512 19.2327 8.47456C19.139 8.444 19.0402 8.43219 18.9419 8.4398C18.8437 8.44742 18.7479 8.47431 18.6601 8.51894C18.5722 8.56357 18.494 8.62507 18.4299 8.69992C18.3658 8.77478 18.3171 8.86152 18.2866 8.9552C18.256 9.04888 18.2442 9.14766 18.2518 9.24591C18.2594 9.34415 18.2863 9.43993 18.3309 9.52779C18.3756 9.61564 18.4371 9.69384 18.5119 9.75792L20.4719 11.4379H9.49993Z" fill="white"/>
</svg>
